<svg width="512" height="512" viewBox="0 0 512 512" fill="none" xmlns="http://www.w3.org/2000/svg">
<path opacity="0.1" d="M256 0C114.615 0 0 114.615 0 256V455.376C0 504.627 58.3361 530.608 94.9456 497.661L113.403 481.05C130.789 465.402 155.98 461.989 176.901 472.451L230.559 499.28C246.574 507.287 265.426 507.287 281.441 499.28L335.098 472.451C356.019 461.989 381.212 465.402 398.598 481.05L417.055 497.661C453.663 530.608 512 504.627 512 455.376V256C512 114.615 397.386 0 256 0Z" fill="#A88BFA"/>
<path d="M103.368 469.9L113.403 481.05L103.368 469.9L84.9113 486.512C84.9112 486.512 84.9112 486.512 84.9111 486.512C57.9544 510.772 15 491.64 15 455.376V256C15 122.899 122.899 15 256 15C389.102 15 497 122.899 497 256V455.376C497 491.641 454.045 510.771 427.09 486.512L417.055 497.661L427.09 486.512L408.632 469.9C408.632 469.9 408.632 469.9 408.632 469.9C386.664 450.128 354.828 445.814 328.39 459.034C328.39 459.035 328.39 459.035 328.389 459.035L274.733 485.863C262.941 491.759 249.059 491.759 237.268 485.863L183.61 459.035C183.61 459.035 183.61 459.034 183.609 459.034C157.171 445.814 125.338 450.128 103.368 469.9Z" stroke="#A88BFA" stroke-width="30"/>
<circle cx="362.667" cy="213.333" r="52" stroke="#A88BFA" stroke-width="24"/>
<circle cx="192" cy="213.333" r="52" stroke="#A88BFA" stroke-width="24"/>
</svg>
