<svg width="1826" height="512" viewBox="0 0 1826 512" fill="none" xmlns="http://www.w3.org/2000/svg">
<g clip-path="url(#clip0_4_18)">
<path opacity="0.1" d="M255.5 38C135.378 38 38 135.378 38 255.5V424.892C38 466.736 87.5629 488.81 118.667 460.817L134.348 446.705C149.12 433.41 170.522 430.51 188.297 439.399L233.885 462.193C247.492 468.996 263.508 468.996 277.115 462.193L322.702 439.399C340.477 430.51 361.881 433.41 376.653 446.705L392.334 460.817C423.436 488.81 473 466.736 473 424.892V255.5C473 135.378 375.623 38 255.5 38Z" fill="#A88BFA"/>
<path d="M125.822 437.231L129.579 442.875M125.822 437.231L110.141 451.345C87.2388 471.957 50.7441 455.702 50.7441 424.892V255.5C50.7441 142.416 142.416 50.7441 255.5 50.7441C368.585 50.7441 460.256 142.416 460.256 255.5V424.892C460.256 455.703 423.761 471.956 400.86 451.345L385.178 437.231C366.513 420.433 339.465 416.768 317.003 428L317.002 428L271.416 450.794C261.397 455.803 249.603 455.803 239.585 450.794L193.997 428L193.996 428C171.534 416.768 144.488 420.433 125.822 437.231Z" stroke="#A88BFA" stroke-width="30"/>
<path d="M346.125 263.429C370.525 263.429 390.305 243.649 390.305 219.25C390.305 194.85 370.525 175.07 346.125 175.07C321.726 175.07 301.946 194.85 301.946 219.25C301.946 243.649 321.726 263.429 346.125 263.429Z" stroke="#A88BFA" stroke-width="24"/>
<path d="M201.125 263.429C225.525 263.429 245.305 243.649 245.305 219.25C245.305 194.85 225.525 175.07 201.125 175.07C176.725 175.07 156.945 194.85 156.945 219.25C156.945 243.649 176.725 263.429 201.125 263.429Z" stroke="#A88BFA" stroke-width="24"/>
<path d="M817.237 240.909V372.745C812.696 377.579 806.031 383.219 797.242 389.664C788.6 395.963 777.247 401.529 763.185 406.363C749.269 411.051 732.276 413.395 712.208 413.395C694.483 413.395 678.37 410.611 663.868 405.045C649.513 399.479 637.135 391.056 626.734 379.776C616.48 368.351 608.644 354.142 603.224 337.149C597.804 320.011 595.094 299.723 595.094 276.285V221.793C595.094 198.648 597.657 178.507 602.784 161.368C608.058 144.083 615.675 129.728 625.636 118.302C635.597 106.876 647.462 98.3799 661.231 92.8135C675.147 87.2471 690.821 84.4639 708.253 84.4639C732.276 84.4639 751.979 88.4922 767.359 96.5488C782.887 104.605 794.605 116.544 802.516 132.364C810.572 148.185 815.406 167.594 817.018 190.592H754.835C753.81 177.115 751.539 166.568 748.023 158.951C744.654 151.334 739.894 145.914 733.741 142.691C727.589 139.322 719.605 137.638 709.791 137.638C701.295 137.638 693.897 139.176 687.599 142.252C681.3 145.182 676.026 150.016 671.778 156.754C667.53 163.492 664.381 172.135 662.33 182.682C660.279 193.229 659.254 206.119 659.254 221.354V276.285C659.254 291.373 660.426 304.264 662.77 314.957C665.113 325.65 668.556 334.366 673.097 341.104C677.784 347.843 683.644 352.75 690.675 355.826C697.853 358.756 706.275 360.221 715.943 360.221C723.707 360.221 729.933 359.415 734.62 357.804C739.308 356.192 743.043 354.508 745.826 352.75C748.756 350.846 751.173 349.381 753.077 348.355V289.469H707.154V240.909H817.237ZM920.509 71.5V409H858.985V71.5H920.509ZM911.72 281.998L895.021 282.438C895.021 265.738 896.705 250.357 900.074 236.295C903.59 222.232 908.644 210.001 915.235 199.601C921.827 189.2 929.811 181.144 939.186 175.431C948.707 169.718 959.181 166.861 970.606 166.861C980.421 166.861 989.356 168.546 997.413 171.915C1005.47 175.284 1012.43 180.558 1018.29 187.735C1024.29 194.913 1028.91 204.361 1032.13 216.08C1035.35 227.799 1036.96 242.081 1036.96 258.927V409H975.221V258.487C975.221 248.233 974.195 240.177 972.145 234.317C970.094 228.458 967.018 224.356 962.916 222.013C958.814 219.522 953.688 218.277 947.535 218.277C940.943 218.277 935.304 219.962 930.616 223.331C926.075 226.554 922.413 231.021 919.63 236.734C916.847 242.447 914.796 249.186 913.478 256.949C912.306 264.713 911.72 273.062 911.72 281.998ZM1074.98 298.258V282.218C1074.98 263.614 1077.17 247.135 1081.57 232.779C1086.11 218.424 1092.55 206.412 1100.9 196.744C1109.25 186.93 1119.29 179.532 1131.01 174.552C1142.87 169.425 1156.13 166.861 1170.78 166.861C1185.57 166.861 1198.83 169.425 1210.55 174.552C1222.41 179.532 1232.52 186.93 1240.87 196.744C1249.37 206.412 1255.88 218.424 1260.43 232.779C1264.97 247.135 1267.24 263.614 1267.24 282.218V298.258C1267.24 316.715 1264.97 333.121 1260.43 347.477C1255.88 361.832 1249.37 373.917 1240.87 383.731C1232.52 393.546 1222.49 400.943 1210.77 405.924C1199.05 410.904 1185.87 413.395 1171.22 413.395C1156.57 413.395 1143.31 410.904 1131.45 405.924C1119.73 400.943 1109.62 393.546 1101.12 383.731C1092.63 373.917 1086.11 361.832 1081.57 347.477C1077.17 333.121 1074.98 316.715 1074.98 298.258ZM1136.5 282.218V298.258C1136.5 309.244 1137.23 318.766 1138.7 326.822C1140.31 334.879 1142.58 341.544 1145.51 346.817C1148.58 352.091 1152.25 355.973 1156.5 358.463C1160.74 360.953 1165.65 362.198 1171.22 362.198C1176.78 362.198 1181.76 360.953 1186.16 358.463C1190.55 355.973 1194.14 352.091 1196.92 346.817C1199.85 341.544 1201.98 334.879 1203.3 326.822C1204.76 318.766 1205.49 309.244 1205.49 298.258V282.218C1205.49 271.524 1204.69 262.149 1203.08 254.093C1201.47 245.89 1199.2 239.225 1196.27 234.098C1193.34 228.824 1189.67 224.869 1185.28 222.232C1181.03 219.449 1176.2 218.058 1170.78 218.058C1165.36 218.058 1160.52 219.449 1156.28 222.232C1152.17 224.869 1148.58 228.824 1145.51 234.098C1142.58 239.225 1140.31 245.89 1138.7 254.093C1137.23 262.149 1136.5 271.524 1136.5 282.218ZM1411.6 344.84C1411.6 340.738 1410.21 337.076 1407.42 333.854C1404.64 330.631 1400.25 327.335 1394.24 323.966C1388.23 320.45 1380.25 316.568 1370.29 312.32C1359.45 307.926 1349.85 303.385 1341.5 298.697C1333.16 294.01 1326.05 288.81 1320.19 283.097C1314.48 277.384 1310.16 270.865 1307.23 263.541C1304.3 256.217 1302.83 247.867 1302.83 238.492C1302.83 228.385 1304.66 219.083 1308.33 210.587C1312.13 201.944 1317.55 194.4 1324.59 187.955C1331.62 181.363 1340.19 176.236 1350.29 172.574C1360.55 168.766 1372.05 166.861 1384.79 166.861C1402.66 166.861 1417.97 170.011 1430.71 176.31C1443.6 182.462 1453.49 191.104 1460.38 202.237C1467.26 213.37 1470.7 226.334 1470.7 241.129H1409.18C1409.18 235.855 1408.38 231.168 1406.76 227.066C1405.15 222.818 1402.52 219.522 1398.85 217.179C1395.34 214.835 1390.58 213.663 1384.57 213.663C1380.18 213.663 1376.22 214.615 1372.71 216.52C1369.34 218.424 1366.63 220.987 1364.58 224.21C1362.67 227.286 1361.72 230.948 1361.72 235.196C1361.72 238.419 1362.38 241.275 1363.7 243.766C1365.16 246.256 1367.43 248.673 1370.51 251.017C1373.58 253.36 1377.69 255.851 1382.81 258.487C1388.09 260.978 1394.53 263.761 1402.15 266.837C1417.97 272.696 1430.93 278.995 1441.04 285.733C1451.29 292.472 1458.91 300.382 1463.89 309.464C1468.87 318.399 1471.36 329.459 1471.36 342.643C1471.36 353.189 1469.31 362.784 1465.21 371.427C1461.26 380.069 1455.47 387.54 1447.85 393.839C1440.24 400.138 1431.08 404.972 1420.39 408.341C1409.84 411.71 1398.05 413.395 1385.01 413.395C1365.82 413.395 1349.63 409.586 1336.45 401.969C1323.27 394.352 1313.31 384.61 1306.57 372.745C1299.83 360.733 1296.46 348.282 1296.46 335.392H1354.91C1355.2 343.302 1356.67 349.527 1359.3 354.068C1362.09 358.463 1365.82 361.539 1370.51 363.297C1375.2 365.055 1380.4 365.934 1386.11 365.934C1391.82 365.934 1396.51 365.201 1400.17 363.736C1403.98 362.125 1406.84 359.708 1408.74 356.485C1410.65 353.116 1411.6 349.234 1411.6 344.84ZM1614.19 171.256V217.618H1492.9V171.256H1614.19ZM1520.8 112.589H1582.11V336.49C1582.11 343.082 1582.76 348.136 1584.08 351.651C1585.4 355.167 1587.38 357.657 1590.02 359.122C1592.8 360.44 1596.46 361.1 1601 361.1C1604.08 361.1 1606.93 360.953 1609.57 360.66C1612.21 360.221 1614.19 359.781 1615.5 359.342V407.462C1610.67 409.366 1605.54 410.831 1600.12 411.856C1594.85 412.882 1588.55 413.395 1581.23 413.395C1568.92 413.395 1558.23 411.051 1549.15 406.363C1540.21 401.676 1533.25 394.205 1528.27 383.951C1523.29 373.551 1520.8 359.928 1520.8 343.082V112.589ZM1708.23 381.754L1757.89 171.256H1822.05L1743.82 444.596C1742.07 450.602 1739.65 457.047 1736.57 463.932C1733.5 470.963 1729.4 477.555 1724.27 483.707C1719.29 490.006 1712.99 495.133 1705.37 499.088C1697.75 503.043 1688.6 505.021 1677.91 505.021C1672.49 505.021 1668.09 504.654 1664.72 503.922C1661.5 503.336 1657.4 502.311 1652.42 500.846V452.945C1653.74 452.945 1654.98 452.945 1656.15 452.945C1657.47 453.092 1658.72 453.165 1659.89 453.165C1666.77 453.165 1672.27 452.213 1676.37 450.309C1680.47 448.551 1683.77 445.768 1686.26 441.959C1688.89 438.15 1691.09 433.39 1692.85 427.677L1708.23 381.754ZM1695.48 171.256L1732.4 341.764L1740.75 411.197L1699.22 415.152L1629.57 171.256H1695.48Z" fill="white"/>
</g>
<defs>
<clipPath id="clip0_4_18">
<rect width="1826" height="512" rx="100" fill="white"/>
</clipPath>
</defs>
</svg>
